<mxfile host="Electron" agent="Mozilla/5.0 (Windows NT 10.0; Win64; x64) AppleWebKit/537.36 (KHTML, like Gecko) draw.io/24.7.17 Chrome/128.0.6613.36 Electron/32.0.1 Safari/537.36" version="24.7.17">
  <diagram name="PÃ¡gina-1" id="1DTQwqfmlbvNaXZDGB6I">
    <mxGraphModel dx="1774" dy="2314" grid="1" gridSize="10" guides="1" tooltips="1" connect="1" arrows="1" fold="1" page="1" pageScale="1" pageWidth="827" pageHeight="1169" math="0" shadow="0">
      <root>
        <mxCell id="0" />
        <mxCell id="1" parent="0" />
        <mxCell id="GY9jMiIHQcub_ka2wnre-1" value="" style="rounded=0;whiteSpace=wrap;html=1;" vertex="1" parent="1">
          <mxGeometry x="10" y="20" width="510" height="180" as="geometry" />
        </mxCell>
        <mxCell id="GY9jMiIHQcub_ka2wnre-2" value="" style="rounded=0;whiteSpace=wrap;html=1;" vertex="1" parent="1">
          <mxGeometry x="15" y="250" width="510" height="170" as="geometry" />
        </mxCell>
        <mxCell id="GY9jMiIHQcub_ka2wnre-3" value="" style="image;sketch=0;aspect=fixed;html=1;points=[];align=center;fontSize=12;image=img/lib/mscae/WebHosting.svg;" vertex="1" parent="1">
          <mxGeometry x="20" y="40" width="50" height="50" as="geometry" />
        </mxCell>
        <mxCell id="GY9jMiIHQcub_ka2wnre-4" value="" style="image;aspect=fixed;html=1;points=[];align=center;fontSize=12;image=img/lib/azure2/compute/App_Services.svg;" vertex="1" parent="1">
          <mxGeometry x="130" y="110" width="50" height="50" as="geometry" />
        </mxCell>
        <mxCell id="GY9jMiIHQcub_ka2wnre-5" value="" style="image;aspect=fixed;html=1;points=[];align=center;fontSize=12;image=img/lib/azure2/compute/App_Services.svg;" vertex="1" parent="1">
          <mxGeometry x="400" y="110" width="50" height="50" as="geometry" />
        </mxCell>
        <mxCell id="GY9jMiIHQcub_ka2wnre-6" value="API" style="text;html=1;align=center;verticalAlign=middle;whiteSpace=wrap;rounded=0;" vertex="1" parent="1">
          <mxGeometry x="125" y="160" width="60" height="30" as="geometry" />
        </mxCell>
        <mxCell id="GY9jMiIHQcub_ka2wnre-7" value="UI" style="text;html=1;align=center;verticalAlign=middle;whiteSpace=wrap;rounded=0;" vertex="1" parent="1">
          <mxGeometry x="395" y="160" width="60" height="30" as="geometry" />
        </mxCell>
        <mxCell id="GY9jMiIHQcub_ka2wnre-9" value="" style="rounded=0;whiteSpace=wrap;html=1;" vertex="1" parent="1">
          <mxGeometry x="10" y="-70" width="510" height="60" as="geometry" />
        </mxCell>
        <mxCell id="GY9jMiIHQcub_ka2wnre-33" style="edgeStyle=orthogonalEdgeStyle;rounded=0;orthogonalLoop=1;jettySize=auto;html=1;" edge="1" parent="1" source="GY9jMiIHQcub_ka2wnre-10" target="GY9jMiIHQcub_ka2wnre-4">
          <mxGeometry relative="1" as="geometry" />
        </mxCell>
        <mxCell id="GY9jMiIHQcub_ka2wnre-34" style="edgeStyle=orthogonalEdgeStyle;rounded=0;orthogonalLoop=1;jettySize=auto;html=1;" edge="1" parent="1" source="GY9jMiIHQcub_ka2wnre-10" target="GY9jMiIHQcub_ka2wnre-17">
          <mxGeometry relative="1" as="geometry" />
        </mxCell>
        <mxCell id="GY9jMiIHQcub_ka2wnre-35" style="edgeStyle=orthogonalEdgeStyle;rounded=0;orthogonalLoop=1;jettySize=auto;html=1;" edge="1" parent="1" source="GY9jMiIHQcub_ka2wnre-10" target="GY9jMiIHQcub_ka2wnre-5">
          <mxGeometry relative="1" as="geometry" />
        </mxCell>
        <mxCell id="GY9jMiIHQcub_ka2wnre-36" style="edgeStyle=orthogonalEdgeStyle;rounded=0;orthogonalLoop=1;jettySize=auto;html=1;" edge="1" parent="1" source="GY9jMiIHQcub_ka2wnre-10" target="GY9jMiIHQcub_ka2wnre-18">
          <mxGeometry relative="1" as="geometry" />
        </mxCell>
        <mxCell id="GY9jMiIHQcub_ka2wnre-10" value="" style="image;aspect=fixed;html=1;points=[];align=center;fontSize=12;image=img/lib/azure2/containers/Container_Registries.svg;" vertex="1" parent="1">
          <mxGeometry x="250" y="-65" width="55.74" height="50" as="geometry" />
        </mxCell>
        <mxCell id="GY9jMiIHQcub_ka2wnre-13" value="Backoffice" style="text;html=1;align=center;verticalAlign=middle;whiteSpace=wrap;rounded=0;" vertex="1" parent="1">
          <mxGeometry x="15" y="90" width="60" height="30" as="geometry" />
        </mxCell>
        <mxCell id="GY9jMiIHQcub_ka2wnre-15" value="" style="image;sketch=0;aspect=fixed;html=1;points=[];align=center;fontSize=12;image=img/lib/mscae/WebHosting.svg;" vertex="1" parent="1">
          <mxGeometry x="25" y="260" width="50" height="50" as="geometry" />
        </mxCell>
        <mxCell id="GY9jMiIHQcub_ka2wnre-16" value="ContApp" style="text;html=1;align=center;verticalAlign=middle;whiteSpace=wrap;rounded=0;" vertex="1" parent="1">
          <mxGeometry x="15" y="310" width="60" height="30" as="geometry" />
        </mxCell>
        <mxCell id="GY9jMiIHQcub_ka2wnre-17" value="" style="image;aspect=fixed;html=1;points=[];align=center;fontSize=12;image=img/lib/azure2/compute/App_Services.svg;" vertex="1" parent="1">
          <mxGeometry x="165" y="320" width="50" height="50" as="geometry" />
        </mxCell>
        <mxCell id="GY9jMiIHQcub_ka2wnre-18" value="" style="image;aspect=fixed;html=1;points=[];align=center;fontSize=12;image=img/lib/azure2/compute/App_Services.svg;" vertex="1" parent="1">
          <mxGeometry x="350" y="320" width="50" height="50" as="geometry" />
        </mxCell>
        <mxCell id="GY9jMiIHQcub_ka2wnre-19" value="API" style="text;html=1;align=center;verticalAlign=middle;whiteSpace=wrap;rounded=0;" vertex="1" parent="1">
          <mxGeometry x="160" y="370" width="60" height="30" as="geometry" />
        </mxCell>
        <mxCell id="GY9jMiIHQcub_ka2wnre-20" value="UI" style="text;html=1;align=center;verticalAlign=middle;whiteSpace=wrap;rounded=0;" vertex="1" parent="1">
          <mxGeometry x="345" y="370" width="60" height="30" as="geometry" />
        </mxCell>
        <mxCell id="GY9jMiIHQcub_ka2wnre-23" value="" style="rounded=0;whiteSpace=wrap;html=1;" vertex="1" parent="1">
          <mxGeometry x="25" y="480" width="120" height="60" as="geometry" />
        </mxCell>
        <mxCell id="GY9jMiIHQcub_ka2wnre-24" value="Client 1" style="text;html=1;align=center;verticalAlign=middle;whiteSpace=wrap;rounded=0;" vertex="1" parent="1">
          <mxGeometry x="55" y="495" width="60" height="30" as="geometry" />
        </mxCell>
        <mxCell id="GY9jMiIHQcub_ka2wnre-25" value="" style="rounded=0;whiteSpace=wrap;html=1;" vertex="1" parent="1">
          <mxGeometry x="400" y="480" width="120" height="60" as="geometry" />
        </mxCell>
        <mxCell id="GY9jMiIHQcub_ka2wnre-26" value="Client n" style="text;html=1;align=center;verticalAlign=middle;whiteSpace=wrap;rounded=0;" vertex="1" parent="1">
          <mxGeometry x="430" y="495" width="60" height="30" as="geometry" />
        </mxCell>
        <mxCell id="GY9jMiIHQcub_ka2wnre-27" value="" style="rounded=0;whiteSpace=wrap;html=1;" vertex="1" parent="1">
          <mxGeometry x="570" y="20" width="120" height="60" as="geometry" />
        </mxCell>
        <mxCell id="GY9jMiIHQcub_ka2wnre-28" value="User" style="text;html=1;align=center;verticalAlign=middle;whiteSpace=wrap;rounded=0;" vertex="1" parent="1">
          <mxGeometry x="600" y="35" width="60" height="30" as="geometry" />
        </mxCell>
        <mxCell id="GY9jMiIHQcub_ka2wnre-29" value="" style="rounded=0;whiteSpace=wrap;html=1;" vertex="1" parent="1">
          <mxGeometry x="-140" y="-70" width="120" height="490" as="geometry" />
        </mxCell>
        <mxCell id="GY9jMiIHQcub_ka2wnre-38" style="edgeStyle=orthogonalEdgeStyle;rounded=0;orthogonalLoop=1;jettySize=auto;html=1;" edge="1" parent="1" source="GY9jMiIHQcub_ka2wnre-30" target="GY9jMiIHQcub_ka2wnre-4">
          <mxGeometry relative="1" as="geometry">
            <Array as="points">
              <mxPoint x="100" y="166" />
              <mxPoint x="100" y="135" />
            </Array>
          </mxGeometry>
        </mxCell>
        <mxCell id="GY9jMiIHQcub_ka2wnre-30" value="" style="image;aspect=fixed;html=1;points=[];align=center;fontSize=12;image=img/lib/azure2/databases/SQL_Server.svg;" vertex="1" parent="1">
          <mxGeometry x="-114" y="132" width="68" height="68" as="geometry" />
        </mxCell>
        <mxCell id="GY9jMiIHQcub_ka2wnre-31" value="Azure SQL" style="text;html=1;align=center;verticalAlign=middle;whiteSpace=wrap;rounded=0;" vertex="1" parent="1">
          <mxGeometry x="-110" y="210" width="60" height="30" as="geometry" />
        </mxCell>
        <mxCell id="GY9jMiIHQcub_ka2wnre-39" style="edgeStyle=orthogonalEdgeStyle;rounded=0;orthogonalLoop=1;jettySize=auto;html=1;entryX=-0.002;entryY=0.535;entryDx=0;entryDy=0;entryPerimeter=0;" edge="1" parent="1" source="GY9jMiIHQcub_ka2wnre-30" target="GY9jMiIHQcub_ka2wnre-17">
          <mxGeometry relative="1" as="geometry">
            <Array as="points">
              <mxPoint x="100" y="166" />
              <mxPoint x="100" y="347" />
            </Array>
          </mxGeometry>
        </mxCell>
      </root>
    </mxGraphModel>
  </diagram>
</mxfile>
